<?xml version="1.0" encoding="UTF-8" standalone="no"?>
<!DOCTYPE svg PUBLIC "-//W3C//DTD SVG 1.1//EN" "http://www.w3.org/Graphics/SVG/1.1/DTD/svg11.dtd">
<svg width="100%" height="100%" viewBox="0 0 64 64" version="1.1" xmlns="http://www.w3.org/2000/svg" xmlns:xlink="http://www.w3.org/1999/xlink" xml:space="preserve" xmlns:serif="http://www.serif.com/" style="fill-rule:evenodd;clip-rule:evenodd;stroke-linejoin:round;stroke-miterlimit:2;">
    <rect id="Artboard1" x="0" y="0" width="64" height="64" style="fill:none;"/>
    <g id="Artboard11" serif:id="Artboard1">
        <g transform="matrix(1.01852,-0.588042,0.588042,1.01852,-42.5295,46.3874)">
            <path d="M32.562,25.638C32.197,24.491 32,23.268 32,22C32,15.377 37.377,10 44,10L86,13L86,31L54.699,33.236C55.157,28.676 52.974,24.054 48.751,21.616C43.134,18.374 35.977,20.186 32.562,25.638Z" style="fill:white;"/>
        </g>
        <g id="Wheel" transform="matrix(0.393491,0,0,0.393491,1.34093,37.3415)">
            <path d="M47,17.857C60.325,17.857 71.143,28.675 71.143,42C71.143,55.325 60.325,66.143 47,66.143C33.675,66.143 22.857,55.325 22.857,42C22.857,28.675 33.675,17.857 47,17.857ZM47,29C39.825,29 34,34.825 34,42C34,49.175 39.825,55 47,55C54.175,55 60,49.175 60,42C60,34.825 54.175,29 47,29Z" style="fill:white;"/>
        </g>
    </g>
</svg>
