<?xml version="1.0" encoding="UTF-8" standalone="no"?>
<!DOCTYPE svg PUBLIC "-//W3C//DTD SVG 1.1//EN" "http://www.w3.org/Graphics/SVG/1.1/DTD/svg11.dtd">
<svg width="100%" height="100%" viewBox="0 0 64 64" version="1.1" xmlns="http://www.w3.org/2000/svg" xmlns:xlink="http://www.w3.org/1999/xlink" xml:space="preserve" xmlns:serif="http://www.serif.com/" style="fill-rule:evenodd;clip-rule:evenodd;stroke-linejoin:round;stroke-miterlimit:2;">
    <rect id="Artboard1" x="0" y="0" width="64" height="64" style="fill:none;"/>
    <g id="Artboard11" serif:id="Artboard1">
        <g transform="matrix(0.740741,0,0,0.740741,8.2963,8.2963)">
            <path d="M31.152,0.172C30.862,-1.242 30.442,-2.617 29.891,-3.919C29.584,-4.646 29.762,-5.489 30.338,-6.03C30.914,-6.571 31.767,-6.695 32.473,-6.342C38.408,-3.409 47.052,0.913 51.795,3.284C52.445,3.609 52.855,4.273 52.855,5C52.855,5.727 52.445,6.391 51.795,6.716C47.052,9.087 38.408,13.409 32.488,16.369C31.769,16.728 30.903,16.601 30.318,16.052C29.732,15.502 29.551,14.646 29.864,13.907C30.438,12.625 30.856,11.259 31.146,9.855C19.303,10.304 9.839,20.047 9.839,32C9.839,44.231 19.769,54.161 32,54.161C44.239,54.161 54.161,44.239 54.161,32C54.161,29.329 56.329,27.161 59,27.161C61.671,27.161 63.839,29.329 63.839,32C63.839,49.584 49.584,63.839 32,63.839C14.428,63.839 0.161,49.572 0.161,32C0.161,14.7 13.96,0.622 31.152,0.172Z" style="fill:white;"/>
        </g>
    </g>
</svg>
